<svg xmlns="http://www.w3.org/2000/svg" width="960" height="720" viewBox="0 0 960 720" role="img" aria-label="Osstem dental chair placeholder">
  <rect width="960" height="720" fill="#f1f5f9"/>
  <circle cx="480" cy="340" r="280" fill="#eff6ff"/>
  <path d="M230 420h420c60 0 110 48 110 108H322c-58 0-98-48-92-108z" fill="#ffffff" stroke="#2563eb" stroke-width="12"/>
  <path d="M354 250h250c46 0 84 38 84 84v86H300v-86c0-46 38-84 84-84z" fill="#dbeafe" stroke="#2563eb" stroke-width="12"/>
  <path d="M290 250l-55-82c-20-30 2-70 38-70h135c28 0 52 20 58 47l24 105z" fill="#ffffff" stroke="#2563eb" stroke-width="12"/>
  <path d="M520 528v70M385 528v70" stroke="#64748b" stroke-width="18" stroke-linecap="round"/>
  <path d="M650 250l90-90M740 160h80" stroke="#2563eb" stroke-width="14" stroke-linecap="round"/>
  <circle cx="830" cy="160" r="34" fill="#ffffff" stroke="#2563eb" stroke-width="10"/>
  <text x="480" y="665" text-anchor="middle" font-family="Arial, sans-serif" font-size="42" font-weight="700" fill="#1d4ed8">Osstem Dental Chair</text>
</svg>
