<svg xmlns="http://www.w3.org/2000/svg" width="960" height="720" viewBox="0 0 960 720" role="img" aria-label="Ultrasonic scaler placeholder">
  <rect width="960" height="720" fill="#f8fafc"/>
  <circle cx="480" cy="330" r="270" fill="#eff6ff"/>
  <path d="M250 455c90 58 370 58 460 0 20 82-58 128-230 128S230 537 250 455z" fill="#ffffff" stroke="#2563eb" stroke-width="10"/>
  <path d="M315 430c40 35 290 35 330 0" fill="none" stroke="#fca5a5" stroke-width="22" stroke-linecap="round"/>
  <path d="M350 430l25 80 35-78 35 86 35-88 35 88 35-86 35 78 25-80" fill="#ffffff" stroke="#cbd5e1" stroke-width="8" stroke-linejoin="round"/>
  <path d="M610 180l110 110-220 180-70-70z" fill="#dbeafe" stroke="#2563eb" stroke-width="10" stroke-linejoin="round"/>
  <path d="M720 290l60 60" stroke="#60a5fa" stroke-width="14" stroke-linecap="round"/>
  <path d="M540 280c-26 24-44 54-54 88" fill="none" stroke="#2563eb" stroke-width="8" stroke-linecap="round"/>
  <text x="480" y="665" text-anchor="middle" font-family="Arial, sans-serif" font-size="42" font-weight="700" fill="#1d4ed8">Ultrasonic Scaler</text>
</svg>
